<mxfile host="app.diagrams.net" modified="2021-01-10T22:47:12.611Z" agent="5.0 (Windows NT 10.0; Win64; x64) AppleWebKit/537.36 (KHTML, like Gecko) Chrome/87.0.4280.141 Safari/537.36" etag="EFwREYLTtDu47aAzgR3H" version="14.1.9" type="github">
  <diagram id="9WXSJ_tSiLGIk-T5xh0V" name="Page-2">
    <mxGraphModel dx="5190" dy="3540" grid="1" gridSize="10" guides="1" tooltips="1" connect="1" arrows="1" fold="1" page="1" pageScale="1" pageWidth="850" pageHeight="1100" math="0" shadow="0">
      <root>
        <mxCell id="XzGh2iktV6rj1c8_MEaI-0" />
        <mxCell id="XzGh2iktV6rj1c8_MEaI-1" parent="XzGh2iktV6rj1c8_MEaI-0" />
        <mxCell id="XzGh2iktV6rj1c8_MEaI-44" value="" style="whiteSpace=wrap;html=1;aspect=fixed;fontSize=20;labelBackgroundColor=#007FFF;" parent="XzGh2iktV6rj1c8_MEaI-1" vertex="1">
          <mxGeometry x="450" y="-810" width="2730" height="2730" as="geometry" />
        </mxCell>
        <mxCell id="XzGh2iktV6rj1c8_MEaI-3" value="Edit Book" style="ellipse;whiteSpace=wrap;html=1;fontSize=22;" parent="XzGh2iktV6rj1c8_MEaI-1" vertex="1">
          <mxGeometry x="2650" y="-766.67" width="190" height="126.67" as="geometry" />
        </mxCell>
        <mxCell id="XzGh2iktV6rj1c8_MEaI-4" value="Remove Book" style="ellipse;whiteSpace=wrap;html=1;fontSize=22;" parent="XzGh2iktV6rj1c8_MEaI-1" vertex="1">
          <mxGeometry x="2640" y="-598.33" width="180" height="120" as="geometry" />
        </mxCell>
        <mxCell id="XzGh2iktV6rj1c8_MEaI-5" value="Add Book" style="ellipse;whiteSpace=wrap;html=1;fontSize=22;" parent="XzGh2iktV6rj1c8_MEaI-1" vertex="1">
          <mxGeometry x="2610" y="-430" width="210" height="140" as="geometry" />
        </mxCell>
        <mxCell id="XzGh2iktV6rj1c8_MEaI-18" value="Update Book List" style="ellipse;whiteSpace=wrap;html=1;fontSize=26;" parent="XzGh2iktV6rj1c8_MEaI-1" vertex="1">
          <mxGeometry x="2060" y="-656.67" width="250" height="166.67" as="geometry" />
        </mxCell>
        <mxCell id="XzGh2iktV6rj1c8_MEaI-19" value="" style="endArrow=block;dashed=1;endFill=0;endSize=12;html=1;entryX=1;entryY=0;entryDx=0;entryDy=0;exitX=0;exitY=0.5;exitDx=0;exitDy=0;" parent="XzGh2iktV6rj1c8_MEaI-1" source="XzGh2iktV6rj1c8_MEaI-3" target="XzGh2iktV6rj1c8_MEaI-18" edge="1">
          <mxGeometry x="-460" y="-810" width="160" as="geometry">
            <mxPoint x="2444.6800000000003" y="-658" as="sourcePoint" />
            <mxPoint x="2310" y="-610" as="targetPoint" />
          </mxGeometry>
        </mxCell>
        <mxCell id="XzGh2iktV6rj1c8_MEaI-76" value="&amp;lt;&amp;lt;Include&amp;gt;&amp;gt;" style="edgeLabel;html=1;align=center;verticalAlign=middle;resizable=0;points=[];fontSize=22;rotation=-15;" parent="XzGh2iktV6rj1c8_MEaI-19" vertex="1" connectable="0">
          <mxGeometry x="-0.095" y="4" relative="1" as="geometry">
            <mxPoint x="1" as="offset" />
          </mxGeometry>
        </mxCell>
        <mxCell id="XzGh2iktV6rj1c8_MEaI-20" value="" style="endArrow=block;dashed=1;endFill=0;endSize=12;html=1;entryX=0.5;entryY=1;entryDx=0;entryDy=0;exitX=0;exitY=0.5;exitDx=0;exitDy=0;" parent="XzGh2iktV6rj1c8_MEaI-1" source="XzGh2iktV6rj1c8_MEaI-5" target="XzGh2iktV6rj1c8_MEaI-18" edge="1">
          <mxGeometry x="-460" y="-810" width="160" as="geometry">
            <mxPoint x="2440" y="-390" as="sourcePoint" />
            <mxPoint x="2175" y="-382" as="targetPoint" />
          </mxGeometry>
        </mxCell>
        <mxCell id="XzGh2iktV6rj1c8_MEaI-79" value="&amp;lt;&amp;lt;Include&amp;gt;&amp;gt;" style="edgeLabel;html=1;align=center;verticalAlign=middle;resizable=0;points=[];fontSize=22;rotation=15;" parent="XzGh2iktV6rj1c8_MEaI-20" vertex="1" connectable="0">
          <mxGeometry x="-0.1398" y="4" relative="1" as="geometry">
            <mxPoint x="1" as="offset" />
          </mxGeometry>
        </mxCell>
        <mxCell id="XzGh2iktV6rj1c8_MEaI-21" value="" style="endArrow=block;dashed=1;endFill=0;endSize=12;html=1;entryX=1;entryY=0.5;entryDx=0;entryDy=0;exitX=0;exitY=0.5;exitDx=0;exitDy=0;" parent="XzGh2iktV6rj1c8_MEaI-1" source="XzGh2iktV6rj1c8_MEaI-4" target="XzGh2iktV6rj1c8_MEaI-18" edge="1">
          <mxGeometry x="-460" y="-810" width="160" as="geometry">
            <mxPoint x="2439.52" y="-530.51" as="sourcePoint" />
            <mxPoint x="2340" y="-530.8300000000002" as="targetPoint" />
          </mxGeometry>
        </mxCell>
        <mxCell id="XzGh2iktV6rj1c8_MEaI-78" value="&amp;lt;&amp;lt;Include&amp;gt;&amp;gt;" style="edgeLabel;html=1;align=center;verticalAlign=middle;resizable=0;points=[];fontSize=22;" parent="XzGh2iktV6rj1c8_MEaI-21" vertex="1" connectable="0">
          <mxGeometry x="-0.127" relative="1" as="geometry">
            <mxPoint x="-1" as="offset" />
          </mxGeometry>
        </mxCell>
        <mxCell id="XzGh2iktV6rj1c8_MEaI-22" value="&lt;font style=&quot;font-size: 22px;&quot;&gt;Search by Author Name&lt;/font&gt;" style="ellipse;whiteSpace=wrap;html=1;fontSize=22;" parent="XzGh2iktV6rj1c8_MEaI-1" vertex="1">
          <mxGeometry x="480" y="-616.67" width="190" height="126.67" as="geometry" />
        </mxCell>
        <mxCell id="XzGh2iktV6rj1c8_MEaI-23" value="" style="ellipse;whiteSpace=wrap;html=1;fontSize=15;" parent="XzGh2iktV6rj1c8_MEaI-1" vertex="1">
          <mxGeometry x="710" y="-440" width="250" height="166.67" as="geometry" />
        </mxCell>
        <mxCell id="XzGh2iktV6rj1c8_MEaI-24" value="&lt;font style=&quot;font-size: 25px;&quot;&gt;Search by Book Name&lt;/font&gt;" style="ellipse;whiteSpace=wrap;html=1;fontSize=25;" parent="XzGh2iktV6rj1c8_MEaI-1" vertex="1">
          <mxGeometry x="1120" y="-640" width="242.5" height="161.67" as="geometry" />
        </mxCell>
        <mxCell id="XzGh2iktV6rj1c8_MEaI-25" value="Search category name" style="ellipse;whiteSpace=wrap;html=1;fontSize=20;" parent="XzGh2iktV6rj1c8_MEaI-1" vertex="1">
          <mxGeometry x="1096.25" y="-230" width="187.5" height="125" as="geometry" />
        </mxCell>
        <mxCell id="XzGh2iktV6rj1c8_MEaI-26" value="&lt;font style=&quot;font-size: 16px&quot;&gt;Extends&lt;/font&gt;" style="endArrow=block;endSize=16;endFill=0;html=1;exitX=0;exitY=0;exitDx=0;exitDy=0;entryX=1;entryY=1;entryDx=0;entryDy=0;" parent="XzGh2iktV6rj1c8_MEaI-1" source="XzGh2iktV6rj1c8_MEaI-25" target="XzGh2iktV6rj1c8_MEaI-23" edge="1">
          <mxGeometry x="-460" y="-810" width="160" as="geometry">
            <mxPoint x="990" y="-365" as="sourcePoint" />
            <mxPoint x="1150" y="-365" as="targetPoint" />
          </mxGeometry>
        </mxCell>
        <mxCell id="XzGh2iktV6rj1c8_MEaI-27" value="&lt;font style=&quot;font-size: 16px&quot;&gt;Extends&lt;/font&gt;" style="endArrow=block;endSize=16;endFill=0;html=1;exitX=0.02;exitY=0.67;exitDx=0;exitDy=0;entryX=1;entryY=0;entryDx=0;entryDy=0;exitPerimeter=0;" parent="XzGh2iktV6rj1c8_MEaI-1" source="XzGh2iktV6rj1c8_MEaI-24" target="XzGh2iktV6rj1c8_MEaI-23" edge="1">
          <mxGeometry x="-460" y="-810" width="160" as="geometry">
            <mxPoint x="983.9369914110091" y="-434.9953390593274" as="sourcePoint" />
            <mxPoint x="890.003008588991" y="-514.2846609406728" as="targetPoint" />
          </mxGeometry>
        </mxCell>
        <mxCell id="XzGh2iktV6rj1c8_MEaI-28" value="&lt;font style=&quot;font-size: 16px&quot;&gt;Extends&lt;/font&gt;" style="endArrow=block;endSize=16;endFill=0;html=1;exitX=1;exitY=1;exitDx=0;exitDy=0;" parent="XzGh2iktV6rj1c8_MEaI-1" source="XzGh2iktV6rj1c8_MEaI-22" target="XzGh2iktV6rj1c8_MEaI-23" edge="1">
          <mxGeometry x="-460" y="-810" width="160" as="geometry">
            <mxPoint x="910" y="-505" as="sourcePoint" />
            <mxPoint x="805.0330085889909" y="-467.3553390593272" as="targetPoint" />
          </mxGeometry>
        </mxCell>
        <mxCell id="XzGh2iktV6rj1c8_MEaI-29" value="Register new Account" style="ellipse;whiteSpace=wrap;html=1;fontSize=25;" parent="XzGh2iktV6rj1c8_MEaI-1" vertex="1">
          <mxGeometry x="2310" y="-70" width="240" height="160" as="geometry" />
        </mxCell>
        <mxCell id="XzGh2iktV6rj1c8_MEaI-30" value="Issuing&amp;nbsp; Lirary Card" style="ellipse;whiteSpace=wrap;html=1;fontSize=21;" parent="XzGh2iktV6rj1c8_MEaI-1" vertex="1">
          <mxGeometry x="1870" y="-190" width="225" height="150" as="geometry" />
        </mxCell>
        <mxCell id="XzGh2iktV6rj1c8_MEaI-31" value="Membership Payment" style="ellipse;whiteSpace=wrap;html=1;fontSize=21;" parent="XzGh2iktV6rj1c8_MEaI-1" vertex="1">
          <mxGeometry x="2240" y="-330" width="225" height="150" as="geometry" />
        </mxCell>
        <mxCell id="XzGh2iktV6rj1c8_MEaI-32" value="&lt;font style=&quot;font-size: 16px&quot;&gt;Extends&lt;/font&gt;" style="endArrow=block;endSize=16;endFill=0;html=1;exitX=0.927;exitY=0.821;exitDx=0;exitDy=0;exitPerimeter=0;entryX=0;entryY=0.5;entryDx=0;entryDy=0;" parent="XzGh2iktV6rj1c8_MEaI-1" source="XzGh2iktV6rj1c8_MEaI-30" target="XzGh2iktV6rj1c8_MEaI-29" edge="1">
          <mxGeometry x="-460" y="-810" width="160" as="geometry">
            <mxPoint x="2120" y="-90" as="sourcePoint" />
            <mxPoint x="2280" y="-90" as="targetPoint" />
          </mxGeometry>
        </mxCell>
        <mxCell id="XzGh2iktV6rj1c8_MEaI-33" value="&lt;font style=&quot;font-size: 16px&quot;&gt;Extends&lt;/font&gt;" style="endArrow=block;endSize=16;endFill=0;html=1;exitX=0.5;exitY=1;exitDx=0;exitDy=0;entryX=0.5;entryY=0;entryDx=0;entryDy=0;" parent="XzGh2iktV6rj1c8_MEaI-1" source="XzGh2iktV6rj1c8_MEaI-31" target="XzGh2iktV6rj1c8_MEaI-29" edge="1">
          <mxGeometry x="-460" y="-810" width="160" as="geometry">
            <mxPoint x="2162.955" y="-154.69000000000005" as="sourcePoint" />
            <mxPoint x="2349.999999999993" y="-70" as="targetPoint" />
          </mxGeometry>
        </mxCell>
        <mxCell id="XzGh2iktV6rj1c8_MEaI-34" value="Login/Logout" style="ellipse;whiteSpace=wrap;html=1;fontSize=24;" parent="XzGh2iktV6rj1c8_MEaI-1" vertex="1">
          <mxGeometry x="1530" width="195" height="130" as="geometry" />
        </mxCell>
        <mxCell id="XzGh2iktV6rj1c8_MEaI-35" value="Register Account/Update Account" style="ellipse;whiteSpace=wrap;html=1;fontSize=22;" parent="XzGh2iktV6rj1c8_MEaI-1" vertex="1">
          <mxGeometry x="1530" y="230" width="195" height="130" as="geometry" />
        </mxCell>
        <mxCell id="XzGh2iktV6rj1c8_MEaI-36" value="Cancel Membership" style="ellipse;whiteSpace=wrap;html=1;fontSize=22;" parent="XzGh2iktV6rj1c8_MEaI-1" vertex="1">
          <mxGeometry x="1530" y="420" width="180" height="120" as="geometry" />
        </mxCell>
        <mxCell id="XzGh2iktV6rj1c8_MEaI-37" value="Issue Book" style="ellipse;whiteSpace=wrap;html=1;fontSize=22;" parent="XzGh2iktV6rj1c8_MEaI-1" vertex="1">
          <mxGeometry x="1530" y="600" width="190" height="120" as="geometry" />
        </mxCell>
        <mxCell id="XzGh2iktV6rj1c8_MEaI-38" value="Checkout Book" style="ellipse;whiteSpace=wrap;html=1;fontSize=22;" parent="XzGh2iktV6rj1c8_MEaI-1" vertex="1">
          <mxGeometry x="1105" y="603.3400000000001" width="170" height="113.33" as="geometry" />
        </mxCell>
        <mxCell id="XzGh2iktV6rj1c8_MEaI-39" value="Remove reservation" style="ellipse;whiteSpace=wrap;html=1;fontSize=22;" parent="XzGh2iktV6rj1c8_MEaI-1" vertex="1">
          <mxGeometry x="1770" y="810" width="190" height="120" as="geometry" />
        </mxCell>
        <mxCell id="XzGh2iktV6rj1c8_MEaI-40" value="Reserve Book" style="ellipse;whiteSpace=wrap;html=1;fontSize=22;" parent="XzGh2iktV6rj1c8_MEaI-1" vertex="1">
          <mxGeometry x="1780" y="1020" width="190" height="120" as="geometry" />
        </mxCell>
        <mxCell id="XzGh2iktV6rj1c8_MEaI-41" value="Renew Book" style="ellipse;whiteSpace=wrap;html=1;fontSize=22;" parent="XzGh2iktV6rj1c8_MEaI-1" vertex="1">
          <mxGeometry x="1760" y="1190" width="210" height="140" as="geometry" />
        </mxCell>
        <mxCell id="XzGh2iktV6rj1c8_MEaI-42" value="Return Book" style="ellipse;whiteSpace=wrap;html=1;fontSize=22;" parent="XzGh2iktV6rj1c8_MEaI-1" vertex="1">
          <mxGeometry x="1755" y="1420" width="220" height="138.95" as="geometry" />
        </mxCell>
        <mxCell id="XzGh2iktV6rj1c8_MEaI-43" value="View Account" style="ellipse;whiteSpace=wrap;html=1;fontSize=22;" parent="XzGh2iktV6rj1c8_MEaI-1" vertex="1">
          <mxGeometry x="1780" y="1770" width="190" height="120" as="geometry" />
        </mxCell>
        <mxCell id="XzGh2iktV6rj1c8_MEaI-45" value="&lt;font style=&quot;font-size: 28px&quot;&gt;&lt;b&gt;Member&lt;br&gt;&lt;/b&gt;&lt;/font&gt;" style="shape=umlActor;verticalLabelPosition=bottom;verticalAlign=top;html=1;outlineConnect=0;" parent="XzGh2iktV6rj1c8_MEaI-1" vertex="1">
          <mxGeometry x="-460" y="340" width="190" height="380" as="geometry" />
        </mxCell>
        <mxCell id="XzGh2iktV6rj1c8_MEaI-46" value="&lt;font style=&quot;font-size: 24px&quot;&gt;&lt;b&gt;Librarian&lt;/b&gt;&lt;/font&gt;" style="shape=umlActor;verticalLabelPosition=bottom;verticalAlign=top;html=1;outlineConnect=0;" parent="XzGh2iktV6rj1c8_MEaI-1" vertex="1">
          <mxGeometry x="3740" y="340" width="190" height="380" as="geometry" />
        </mxCell>
        <mxCell id="XzGh2iktV6rj1c8_MEaI-47" value="" style="endArrow=block;dashed=1;endFill=0;endSize=12;html=1;entryX=1;entryY=0.5;entryDx=0;entryDy=0;exitX=0;exitY=0.5;exitDx=0;exitDy=0;" parent="XzGh2iktV6rj1c8_MEaI-1" source="XzGh2iktV6rj1c8_MEaI-37" target="XzGh2iktV6rj1c8_MEaI-38" edge="1">
          <mxGeometry x="-460" y="-810" width="160" as="geometry">
            <mxPoint x="1390" y="760" as="sourcePoint" />
            <mxPoint x="1550" y="760" as="targetPoint" />
          </mxGeometry>
        </mxCell>
        <mxCell id="XzGh2iktV6rj1c8_MEaI-80" value="&amp;lt;&amp;lt;Include&amp;gt;&amp;gt;" style="edgeLabel;html=1;align=center;verticalAlign=middle;resizable=0;points=[];fontSize=22;" parent="XzGh2iktV6rj1c8_MEaI-47" vertex="1" connectable="0">
          <mxGeometry x="0.3229" y="2" relative="1" as="geometry">
            <mxPoint x="28.33" as="offset" />
          </mxGeometry>
        </mxCell>
        <mxCell id="XzGh2iktV6rj1c8_MEaI-49" value="" style="endArrow=none;html=1;entryX=1;entryY=0.5;entryDx=0;entryDy=0;exitX=0.5;exitY=0.5;exitDx=0;exitDy=0;exitPerimeter=0;" parent="XzGh2iktV6rj1c8_MEaI-1" source="XzGh2iktV6rj1c8_MEaI-46" target="XzGh2iktV6rj1c8_MEaI-39" edge="1">
          <mxGeometry x="-460" y="-810" width="50" height="50" as="geometry">
            <mxPoint x="2200" y="1100" as="sourcePoint" />
            <mxPoint x="2250" y="1050" as="targetPoint" />
          </mxGeometry>
        </mxCell>
        <mxCell id="XzGh2iktV6rj1c8_MEaI-50" value="" style="endArrow=none;html=1;entryX=1;entryY=0.5;entryDx=0;entryDy=0;exitX=0.5;exitY=0.5;exitDx=0;exitDy=0;exitPerimeter=0;" parent="XzGh2iktV6rj1c8_MEaI-1" source="XzGh2iktV6rj1c8_MEaI-46" edge="1">
          <mxGeometry x="-460" y="-810" width="50" height="50" as="geometry">
            <mxPoint x="3845" y="740" as="sourcePoint" />
            <mxPoint x="1970" y="1080" as="targetPoint" />
          </mxGeometry>
        </mxCell>
        <mxCell id="XzGh2iktV6rj1c8_MEaI-51" value="" style="endArrow=none;html=1;entryX=1;entryY=0.5;entryDx=0;entryDy=0;exitX=0.5;exitY=0.5;exitDx=0;exitDy=0;exitPerimeter=0;" parent="XzGh2iktV6rj1c8_MEaI-1" source="XzGh2iktV6rj1c8_MEaI-46" target="XzGh2iktV6rj1c8_MEaI-41" edge="1">
          <mxGeometry x="-460" y="-810" width="50" height="50" as="geometry">
            <mxPoint x="3845" y="540" as="sourcePoint" />
            <mxPoint x="1980" y="1090" as="targetPoint" />
          </mxGeometry>
        </mxCell>
        <mxCell id="XzGh2iktV6rj1c8_MEaI-52" value="" style="endArrow=none;html=1;entryX=1;entryY=0;entryDx=0;entryDy=0;exitX=0.5;exitY=0.5;exitDx=0;exitDy=0;exitPerimeter=0;" parent="XzGh2iktV6rj1c8_MEaI-1" source="XzGh2iktV6rj1c8_MEaI-46" target="XzGh2iktV6rj1c8_MEaI-42" edge="1">
          <mxGeometry x="-460" y="-810" width="50" height="50" as="geometry">
            <mxPoint x="3845" y="540" as="sourcePoint" />
            <mxPoint x="1980" y="1270" as="targetPoint" />
          </mxGeometry>
        </mxCell>
        <mxCell id="XzGh2iktV6rj1c8_MEaI-53" value="" style="endArrow=none;html=1;entryX=1;entryY=0;entryDx=0;entryDy=0;exitX=0.5;exitY=0.5;exitDx=0;exitDy=0;exitPerimeter=0;" parent="XzGh2iktV6rj1c8_MEaI-1" source="XzGh2iktV6rj1c8_MEaI-46" target="XzGh2iktV6rj1c8_MEaI-43" edge="1">
          <mxGeometry x="-460" y="-810" width="50" height="50" as="geometry">
            <mxPoint x="3845" y="540" as="sourcePoint" />
            <mxPoint x="1952.1751442127215" y="1457.5735931288073" as="targetPoint" />
          </mxGeometry>
        </mxCell>
        <mxCell id="XzGh2iktV6rj1c8_MEaI-54" value="" style="endArrow=none;html=1;entryX=1;entryY=0.5;entryDx=0;entryDy=0;exitX=0.5;exitY=0.5;exitDx=0;exitDy=0;exitPerimeter=0;" parent="XzGh2iktV6rj1c8_MEaI-1" source="XzGh2iktV6rj1c8_MEaI-46" target="XzGh2iktV6rj1c8_MEaI-34" edge="1">
          <mxGeometry x="-460" y="-810" width="50" height="50" as="geometry">
            <mxPoint x="3845" y="540" as="sourcePoint" />
            <mxPoint x="1970" y="880" as="targetPoint" />
          </mxGeometry>
        </mxCell>
        <mxCell id="XzGh2iktV6rj1c8_MEaI-55" value="" style="endArrow=none;html=1;entryX=1;entryY=0.5;entryDx=0;entryDy=0;exitX=0.5;exitY=0.5;exitDx=0;exitDy=0;exitPerimeter=0;" parent="XzGh2iktV6rj1c8_MEaI-1" source="XzGh2iktV6rj1c8_MEaI-46" target="XzGh2iktV6rj1c8_MEaI-35" edge="1">
          <mxGeometry x="-460" y="-810" width="50" height="50" as="geometry">
            <mxPoint x="3845" y="540" as="sourcePoint" />
            <mxPoint x="1740" y="145" as="targetPoint" />
          </mxGeometry>
        </mxCell>
        <mxCell id="XzGh2iktV6rj1c8_MEaI-56" value="" style="endArrow=none;html=1;entryX=1;entryY=0.5;entryDx=0;entryDy=0;exitX=0.5;exitY=0.5;exitDx=0;exitDy=0;exitPerimeter=0;" parent="XzGh2iktV6rj1c8_MEaI-1" source="XzGh2iktV6rj1c8_MEaI-46" target="XzGh2iktV6rj1c8_MEaI-36" edge="1">
          <mxGeometry x="-460" y="-810" width="50" height="50" as="geometry">
            <mxPoint x="3845" y="540" as="sourcePoint" />
            <mxPoint x="1735" y="305" as="targetPoint" />
          </mxGeometry>
        </mxCell>
        <mxCell id="XzGh2iktV6rj1c8_MEaI-57" value="" style="endArrow=none;html=1;entryX=1;entryY=0.5;entryDx=0;entryDy=0;exitX=0.5;exitY=0.5;exitDx=0;exitDy=0;exitPerimeter=0;" parent="XzGh2iktV6rj1c8_MEaI-1" source="XzGh2iktV6rj1c8_MEaI-46" target="XzGh2iktV6rj1c8_MEaI-37" edge="1">
          <mxGeometry x="-460" y="-810" width="50" height="50" as="geometry">
            <mxPoint x="3845" y="540" as="sourcePoint" />
            <mxPoint x="1720" y="490" as="targetPoint" />
          </mxGeometry>
        </mxCell>
        <mxCell id="XzGh2iktV6rj1c8_MEaI-58" value="" style="endArrow=none;html=1;entryX=1;entryY=1;entryDx=0;entryDy=0;exitX=0.5;exitY=0.5;exitDx=0;exitDy=0;exitPerimeter=0;" parent="XzGh2iktV6rj1c8_MEaI-1" target="XzGh2iktV6rj1c8_MEaI-29" edge="1">
          <mxGeometry x="-460" y="-810" width="50" height="50" as="geometry">
            <mxPoint x="3845" y="540.0000000000005" as="sourcePoint" />
            <mxPoint x="1739.999999999991" y="145" as="targetPoint" />
          </mxGeometry>
        </mxCell>
        <mxCell id="XzGh2iktV6rj1c8_MEaI-59" value="" style="endArrow=none;html=1;entryX=1;entryY=0.5;entryDx=0;entryDy=0;exitX=0.5;exitY=0.5;exitDx=0;exitDy=0;exitPerimeter=0;" parent="XzGh2iktV6rj1c8_MEaI-1" source="XzGh2iktV6rj1c8_MEaI-46" target="XzGh2iktV6rj1c8_MEaI-5" edge="1">
          <mxGeometry x="-460" y="-810" width="50" height="50" as="geometry">
            <mxPoint x="3855.000000000001" y="550.0000000000005" as="sourcePoint" />
            <mxPoint x="2730.3177949753854" y="54.23350373329686" as="targetPoint" />
          </mxGeometry>
        </mxCell>
        <mxCell id="XzGh2iktV6rj1c8_MEaI-60" value="" style="endArrow=none;html=1;entryX=1;entryY=0.5;entryDx=0;entryDy=0;exitX=0.5;exitY=0.5;exitDx=0;exitDy=0;exitPerimeter=0;" parent="XzGh2iktV6rj1c8_MEaI-1" target="XzGh2iktV6rj1c8_MEaI-4" edge="1">
          <mxGeometry x="-460" y="-810" width="50" height="50" as="geometry">
            <mxPoint x="3845" y="540.0000000000005" as="sourcePoint" />
            <mxPoint x="2790" y="-380" as="targetPoint" />
          </mxGeometry>
        </mxCell>
        <mxCell id="XzGh2iktV6rj1c8_MEaI-61" value="" style="endArrow=none;html=1;entryX=1;entryY=0.5;entryDx=0;entryDy=0;exitX=0.5;exitY=0.5;exitDx=0;exitDy=0;exitPerimeter=0;" parent="XzGh2iktV6rj1c8_MEaI-1" source="XzGh2iktV6rj1c8_MEaI-46" target="XzGh2iktV6rj1c8_MEaI-3" edge="1">
          <mxGeometry x="-460" y="-810" width="50" height="50" as="geometry">
            <mxPoint x="3855.000000000001" y="550.0000000000005" as="sourcePoint" />
            <mxPoint x="2790" y="-520" as="targetPoint" />
          </mxGeometry>
        </mxCell>
        <mxCell id="XzGh2iktV6rj1c8_MEaI-62" value="" style="endArrow=none;html=1;exitX=0.5;exitY=0.5;exitDx=0;exitDy=0;exitPerimeter=0;entryX=0;entryY=1;entryDx=0;entryDy=0;" parent="XzGh2iktV6rj1c8_MEaI-1" source="XzGh2iktV6rj1c8_MEaI-45" target="XzGh2iktV6rj1c8_MEaI-23" edge="1">
          <mxGeometry x="-460" y="-810" width="50" height="50" as="geometry">
            <mxPoint x="530" y="420" as="sourcePoint" />
            <mxPoint x="580" y="370" as="targetPoint" />
          </mxGeometry>
        </mxCell>
        <mxCell id="XzGh2iktV6rj1c8_MEaI-63" value="" style="endArrow=none;html=1;exitX=0.5;exitY=0.5;exitDx=0;exitDy=0;exitPerimeter=0;entryX=0;entryY=0.5;entryDx=0;entryDy=0;" parent="XzGh2iktV6rj1c8_MEaI-1" source="XzGh2iktV6rj1c8_MEaI-45" target="XzGh2iktV6rj1c8_MEaI-34" edge="1">
          <mxGeometry x="-460" y="-810" width="50" height="50" as="geometry">
            <mxPoint x="-355" y="540.0000000000005" as="sourcePoint" />
            <mxPoint x="970" y="-215" as="targetPoint" />
          </mxGeometry>
        </mxCell>
        <mxCell id="XzGh2iktV6rj1c8_MEaI-64" value="" style="endArrow=none;html=1;exitX=0.5;exitY=0.5;exitDx=0;exitDy=0;exitPerimeter=0;entryX=0;entryY=0.5;entryDx=0;entryDy=0;" parent="XzGh2iktV6rj1c8_MEaI-1" source="XzGh2iktV6rj1c8_MEaI-45" target="XzGh2iktV6rj1c8_MEaI-35" edge="1">
          <mxGeometry x="-460" y="-810" width="50" height="50" as="geometry">
            <mxPoint x="-345" y="550.0000000000005" as="sourcePoint" />
            <mxPoint x="1545.00000000001" y="145" as="targetPoint" />
          </mxGeometry>
        </mxCell>
        <mxCell id="XzGh2iktV6rj1c8_MEaI-65" value="" style="endArrow=none;html=1;exitX=0.5;exitY=0.5;exitDx=0;exitDy=0;exitPerimeter=0;entryX=0;entryY=0.5;entryDx=0;entryDy=0;" parent="XzGh2iktV6rj1c8_MEaI-1" source="XzGh2iktV6rj1c8_MEaI-45" target="XzGh2iktV6rj1c8_MEaI-36" edge="1">
          <mxGeometry x="-460" y="-810" width="50" height="50" as="geometry">
            <mxPoint x="-335" y="560.0000000000005" as="sourcePoint" />
            <mxPoint x="1540.00000000001" y="305" as="targetPoint" />
          </mxGeometry>
        </mxCell>
        <mxCell id="XzGh2iktV6rj1c8_MEaI-66" value="" style="endArrow=none;html=1;exitX=0.5;exitY=0.5;exitDx=0;exitDy=0;exitPerimeter=0;entryX=0;entryY=0.5;entryDx=0;entryDy=0;" parent="XzGh2iktV6rj1c8_MEaI-1" source="XzGh2iktV6rj1c8_MEaI-45" target="XzGh2iktV6rj1c8_MEaI-38" edge="1">
          <mxGeometry x="-460" y="-810" width="50" height="50" as="geometry">
            <mxPoint x="-325" y="570.0000000000005" as="sourcePoint" />
            <mxPoint x="1540" y="490.00000000000045" as="targetPoint" />
          </mxGeometry>
        </mxCell>
        <mxCell id="XzGh2iktV6rj1c8_MEaI-67" value="" style="endArrow=block;dashed=1;endFill=0;endSize=12;html=1;entryX=0;entryY=0.5;entryDx=0;entryDy=0;exitX=1;exitY=1;exitDx=0;exitDy=0;" parent="XzGh2iktV6rj1c8_MEaI-1" source="XzGh2iktV6rj1c8_MEaI-38" target="XzGh2iktV6rj1c8_MEaI-39" edge="1">
          <mxGeometry x="-460" y="-810" width="160" as="geometry">
            <mxPoint x="940" y="770" as="sourcePoint" />
            <mxPoint x="1100" y="770" as="targetPoint" />
          </mxGeometry>
        </mxCell>
        <mxCell id="XzGh2iktV6rj1c8_MEaI-81" value="&amp;lt;&amp;lt;Include&amp;gt;&amp;gt;" style="edgeLabel;html=1;align=center;verticalAlign=middle;resizable=0;points=[];fontSize=22;rotation=15;" parent="XzGh2iktV6rj1c8_MEaI-67" vertex="1" connectable="0">
          <mxGeometry x="-0.4383" y="-1" relative="1" as="geometry">
            <mxPoint as="offset" />
          </mxGeometry>
        </mxCell>
        <mxCell id="XzGh2iktV6rj1c8_MEaI-68" value="" style="endArrow=none;html=1;exitX=0.5;exitY=0.5;exitDx=0;exitDy=0;exitPerimeter=0;entryX=0;entryY=0.5;entryDx=0;entryDy=0;" parent="XzGh2iktV6rj1c8_MEaI-1" source="XzGh2iktV6rj1c8_MEaI-45" target="XzGh2iktV6rj1c8_MEaI-40" edge="1">
          <mxGeometry x="-460" y="-810" width="50" height="50" as="geometry">
            <mxPoint x="-355" y="540.0000000000005" as="sourcePoint" />
            <mxPoint x="1115.0000000000027" y="670.0050000000001" as="targetPoint" />
          </mxGeometry>
        </mxCell>
        <mxCell id="XzGh2iktV6rj1c8_MEaI-69" value="" style="endArrow=none;html=1;exitX=0.5;exitY=0.5;exitDx=0;exitDy=0;exitPerimeter=0;entryX=0;entryY=0.5;entryDx=0;entryDy=0;" parent="XzGh2iktV6rj1c8_MEaI-1" source="XzGh2iktV6rj1c8_MEaI-45" target="XzGh2iktV6rj1c8_MEaI-41" edge="1">
          <mxGeometry x="-460" y="-810" width="50" height="50" as="geometry">
            <mxPoint x="-345" y="550.0000000000005" as="sourcePoint" />
            <mxPoint x="1790" y="1090" as="targetPoint" />
          </mxGeometry>
        </mxCell>
        <mxCell id="XzGh2iktV6rj1c8_MEaI-70" value="" style="endArrow=none;html=1;exitX=0.5;exitY=0.5;exitDx=0;exitDy=0;exitPerimeter=0;entryX=0;entryY=0.5;entryDx=0;entryDy=0;" parent="XzGh2iktV6rj1c8_MEaI-1" source="XzGh2iktV6rj1c8_MEaI-45" target="XzGh2iktV6rj1c8_MEaI-42" edge="1">
          <mxGeometry x="-460" y="-810" width="50" height="50" as="geometry">
            <mxPoint x="-335" y="560.0000000000005" as="sourcePoint" />
            <mxPoint x="1770" y="1270" as="targetPoint" />
          </mxGeometry>
        </mxCell>
        <mxCell id="XzGh2iktV6rj1c8_MEaI-71" value="" style="endArrow=none;html=1;exitX=0.5;exitY=0.5;exitDx=0;exitDy=0;exitPerimeter=0;entryX=0;entryY=0;entryDx=0;entryDy=0;" parent="XzGh2iktV6rj1c8_MEaI-1" source="XzGh2iktV6rj1c8_MEaI-45" target="XzGh2iktV6rj1c8_MEaI-43" edge="1">
          <mxGeometry x="-460" y="-810" width="50" height="50" as="geometry">
            <mxPoint x="-325" y="570.0000000000005" as="sourcePoint" />
            <mxPoint x="1790" y="1500" as="targetPoint" />
          </mxGeometry>
        </mxCell>
        <mxCell id="XzGh2iktV6rj1c8_MEaI-72" value="Fine Payment" style="ellipse;whiteSpace=wrap;html=1;direction=east;fontSize=22;" parent="XzGh2iktV6rj1c8_MEaI-1" vertex="1">
          <mxGeometry x="2150" y="1380" width="190" height="120" as="geometry" />
        </mxCell>
        <mxCell id="XzGh2iktV6rj1c8_MEaI-73" value="Extends" style="endArrow=block;endSize=16;endFill=0;html=1;entryX=1;entryY=0.5;entryDx=0;entryDy=0;exitX=0;exitY=0.5;exitDx=0;exitDy=0;" parent="XzGh2iktV6rj1c8_MEaI-1" source="XzGh2iktV6rj1c8_MEaI-72" target="XzGh2iktV6rj1c8_MEaI-42" edge="1">
          <mxGeometry x="-460" y="-810" width="160" as="geometry">
            <mxPoint x="1820" y="1490" as="sourcePoint" />
            <mxPoint x="1980" y="1490" as="targetPoint" />
          </mxGeometry>
        </mxCell>
        <mxCell id="XzGh2iktV6rj1c8_MEaI-74" value="&lt;font style=&quot;font-size: 34px&quot;&gt;Search List&lt;/font&gt;" style="text;html=1;resizable=0;autosize=1;align=center;verticalAlign=middle;points=[];fillColor=none;strokeColor=none;rounded=0;fontSize=24;" parent="XzGh2iktV6rj1c8_MEaI-1" vertex="1">
          <mxGeometry x="730" y="-376.66" width="190" height="40" as="geometry" />
        </mxCell>
        <mxCell id="XzGh2iktV6rj1c8_MEaI-82" value="System Administrator" style="shape=umlActor;verticalLabelPosition=bottom;verticalAlign=top;html=1;fontSize=33;fontStyle=1" parent="XzGh2iktV6rj1c8_MEaI-1" vertex="1">
          <mxGeometry x="3730" y="1330" width="165" height="330" as="geometry" />
        </mxCell>
        <mxCell id="XzGh2iktV6rj1c8_MEaI-83" value="&lt;font style=&quot;font-size: 30px&quot;&gt;Add Librarian&lt;/font&gt;" style="ellipse;whiteSpace=wrap;html=1;fontSize=22;" parent="XzGh2iktV6rj1c8_MEaI-1" vertex="1">
          <mxGeometry x="2690" y="1490" width="270" height="180" as="geometry" />
        </mxCell>
        <mxCell id="XzGh2iktV6rj1c8_MEaI-84" value="" style="endArrow=none;html=1;fontSize=22;entryX=0.5;entryY=0.5;entryDx=0;entryDy=0;entryPerimeter=0;exitX=1;exitY=0.5;exitDx=0;exitDy=0;" parent="XzGh2iktV6rj1c8_MEaI-1" source="XzGh2iktV6rj1c8_MEaI-83" target="XzGh2iktV6rj1c8_MEaI-82" edge="1">
          <mxGeometry x="-460" y="-810" width="50" height="50" as="geometry">
            <mxPoint x="2820" y="1520" as="sourcePoint" />
            <mxPoint x="2870" y="1470" as="targetPoint" />
          </mxGeometry>
        </mxCell>
      </root>
    </mxGraphModel>
  </diagram>
</mxfile>
